Plot.

Theseus is a mortal man chosen by Zeus to lead the fight against the ruthless King Hyperion, who is on a rampage across Greece to obtain a weapon that can destroy humanity


General.

Complete name                    : Immortals[2011]ENG[BRRip]XviD-{RedDragon} .avi
Format                           : MPEG-4
Format profile                   : Base Media / Version 2
Codec ID                         : mp42
File size                        : 808 MiB
Duration                         : 1h 50mn
Overall bit rate                 : 1 022 Kbps
IMDB Link                        : http://www.imdb.com/title/tt1253864/
IMDB Rating                   : 6.3/10


Video.

ID                               : 1
Format                           : AVC
Format/Info                      : Advanced Video Codec
Format profile                   : Main@L2.2
Format settings, CABAC           : Yes
Format settings, ReFrames        : 4 frames
Format settings, GOP             : M=3, N=16
Codec ID                         : avc1
Codec ID/Info                    : Advanced Video Coding
Duration                         : 1h 50mn
Bit rate mode                    : Variable
Bit rate                         : 849 Kbps
Width                            : 624 pixels
Height                           : 336 pixels
Display aspect ratio             : 1.857
Frame rate mode                  : Variable
Frame rate                       : 23.976 fps
Minimum frame rate               : 23.974 fps
Maximum frame rate               : 23.981 fps
Color space                      : YUV
Chroma subsampling               : 4:2:0
Bit depth                        : 8 bits
Scan type                        : Progressive
Bits/(Pixel*Frame)               : 0.169
Stream size                      : 677 MiB (84%)
Writing library                  : x264 core 112
Encoded date                     : UTC 2012-02-19 08:44:53


Audio.

ID                               : 2
Format                           : AAC
Format/Info                      : Advanced Audio Codec
Format version                   : Version 4
Format profile                   : LC
Format settings, SBR             : No
Codec ID                         : 40
Duration                         : 1h 50mn
Bit rate mode                    : Variable
Bit rate                         : 160 Kbps
Maximum bit rate                 : 192 Kbps
Channel(s)                       : 2 channels
Channel positions                : Front: L R
Sampling rate                    : 48.0 KHz
Stream size                      : 126 MiB (16%)
Encoded date                     : UTC 2012-02-19 08:44:53
Tagged date                      : UTC 2012-02-19 09:17:59
